<svg width="215" height="70" viewBox="0 0 215 70" fill="none" xmlns="http://www.w3.org/2000/svg">
<path d="M37.6394 69.8401C31.296 69.8773 25.0639 68.2866 19.6167 65.2401C19.0843 64.9424 18.9051 64.2876 19.2161 63.7778C19.5272 63.2679 20.2113 63.0962 20.7435 63.3938C25.8452 66.247 31.683 67.7368 37.6264 67.702C55.8926 67.5949 70.6667 53.2801 70.5603 35.7919C70.5409 32.6143 70.0329 29.4807 69.05 26.4787C68.8655 25.9153 67.8488 21.7508 68.4372 21.574C69.026 21.3972 70.9967 25.2753 71.1812 25.8387C72.2303 29.0439 72.7728 32.3881 72.7935 35.7788C72.8485 44.8214 69.2223 53.3444 62.5823 59.7778C55.9426 66.2112 47.0844 69.7847 37.6394 69.8401Z" fill="#CA875E"/>
<path d="M4.19432 50.0433L4.19428 50.0432C2.16146 45.6334 1.12221 40.9312 1.10687 36.0726C1.07745 26.7501 4.84425 17.9783 11.6945 11.3792C18.5429 4.78161 27.6605 1.13707 37.3571 1.1076C51.815 1.06364 64.9405 9.22721 70.7718 21.9496L70.7719 21.9498C71.2669 23.0301 70.7346 24.252 69.6764 24.6968L69.6764 24.6968C68.6386 25.1329 67.3922 24.6978 66.9085 23.6422C61.7766 12.4453 50.1918 5.20673 37.3702 5.2457C19.6147 5.29968 5.2869 19.1641 5.34023 36.0597C5.36699 44.5352 8.91978 52.4161 15.3672 58.2594L15.3673 58.2595C16.2353 59.0463 16.2757 60.3795 15.4502 61.2146L4.19432 50.0433ZM4.19432 50.0433C6.15752 54.301 8.94994 58.0869 12.4886 61.2942M4.19432 50.0433L12.4886 61.2942M12.4886 61.2942C12.9017 61.6687 13.4244 61.8475 13.9344 61.8459M12.4886 61.2942L13.9344 61.8459M13.9344 61.8459C14.4775 61.8443 15.0321 61.6376 15.4501 61.2147L13.9344 61.8459Z" fill="#FF7E00" stroke="#FF7E00" stroke-width="2"/>
<path d="M60.0174 35.1671C60.0148 35.1012 60.012 35.0355 60.0089 34.9698C59.9988 34.759 59.9863 34.5487 59.97 34.3394C59.9673 34.3049 59.9658 34.2702 59.9626 34.2357C59.9443 34.0107 59.9208 33.787 59.8949 33.564C59.8848 33.4758 59.8736 33.3879 59.8623 33.2999C59.8428 33.1473 59.8212 32.9954 59.7982 32.8438C59.7763 32.6991 59.7529 32.5549 59.728 32.4108C59.7051 32.2784 59.6817 32.1459 59.6562 32.0143C59.6309 31.8824 59.6037 31.751 59.5758 31.6196C59.5606 31.5495 59.545 31.4793 59.5291 31.4092C58.9131 28.6547 57.7403 26.0384 56.0444 23.6895C56.0152 23.6491 55.9828 23.6121 55.9491 23.5768C54.3887 21.4486 52.4383 19.6016 50.198 18.131C50.1603 18.0988 50.1212 18.0683 50.0785 18.0404C48.0696 16.7425 45.8783 15.7778 43.5794 15.1604C43.5753 15.1592 43.571 15.158 43.5666 15.1568C43.0826 15.0271 42.5941 14.913 42.1011 14.8147C42.0105 14.7966 41.9197 14.7786 41.8288 14.7614C41.7014 14.7376 41.5739 14.7141 41.446 14.6922C41.2573 14.66 41.068 14.6299 40.8778 14.6023C40.7765 14.5877 40.6751 14.5746 40.5735 14.5612C40.4113 14.5397 40.2487 14.5199 40.0856 14.5017C39.9983 14.4922 39.9111 14.4824 39.8235 14.4737C39.5899 14.4504 39.3553 14.4296 39.1196 14.4133C39.0799 14.4105 39.0405 14.409 39.0009 14.4065C38.7873 14.3927 38.5729 14.3821 38.3579 14.3742C38.2893 14.3715 38.2206 14.3692 38.1518 14.3673C37.9019 14.3601 37.6515 14.3554 37.3995 14.3562V14.3562L37.3982 14.3562C37.1464 14.357 36.8958 14.3632 36.646 14.3718C36.5772 14.3742 36.5085 14.377 36.4399 14.38C36.225 14.3894 36.0104 14.4012 35.7972 14.4162C35.7575 14.419 35.7182 14.4207 35.6785 14.4237C35.443 14.4415 35.2086 14.4638 34.975 14.4884C34.8874 14.4977 34.8003 14.5077 34.713 14.518C34.55 14.5372 34.3875 14.5582 34.2255 14.5805C34.124 14.5944 34.0227 14.6082 33.9215 14.6235C33.7317 14.6522 33.5424 14.6836 33.3541 14.7168C33.2262 14.7393 33.0988 14.7638 32.9717 14.7883C32.8807 14.8061 32.7902 14.8243 32.6998 14.8433C32.2074 14.9447 31.7196 15.0618 31.2364 15.1943C31.2322 15.1955 31.2277 15.1967 31.2236 15.1979C28.9285 15.8292 26.7434 16.8072 24.7429 18.1174C24.7003 18.1453 24.6613 18.1763 24.624 18.2087C22.3929 19.6928 20.4543 21.5517 18.9073 23.6894C18.8738 23.725 18.8419 23.7621 18.8128 23.8026C17.1317 26.1618 15.9753 28.7854 15.3768 31.5435C15.3616 31.6136 15.3462 31.6837 15.3315 31.7541C15.3043 31.8857 15.278 32.0172 15.2536 32.1493C15.2289 32.2811 15.2065 32.4135 15.1842 32.5462C15.1603 32.6904 15.1378 32.8348 15.1168 32.9796C15.0948 33.1314 15.0741 33.2834 15.0556 33.4361C15.0448 33.5242 15.0344 33.6122 15.0246 33.7004C15.0002 33.9236 14.9781 34.1474 14.9611 34.3725C14.9582 34.4071 14.9571 34.4416 14.9544 34.4762C14.9395 34.6855 14.9281 34.8959 14.9195 35.1069C14.9167 35.1726 14.9144 35.2384 14.9123 35.3042C14.9046 35.5455 14.8997 35.7873 14.9005 36.0305C14.9011 36.2167 14.9041 36.4023 14.9097 36.5873C14.9207 36.9573 14.9413 37.325 14.9717 37.6901C15.0325 38.4205 15.131 39.1408 15.2659 39.8489C17.1868 49.9412 26.4532 57.6011 37.5354 57.5674C48.6177 57.5337 57.8358 49.8176 59.6929 39.7139C59.8233 39.0048 59.9174 38.284 59.9734 37.5533C60.0013 37.1878 60.0196 36.82 60.0285 36.4501C60.0329 36.2651 60.0348 36.0793 60.0342 35.8933C60.033 35.6501 60.0267 35.4084 60.0174 35.1671ZM33.1844 16.9307C33.2589 16.9154 33.3335 16.9 33.4083 16.8855C33.5272 16.8624 33.6464 16.8398 33.7658 16.8187C33.9234 16.791 34.0812 16.7648 34.2395 16.7407C34.344 16.7246 34.449 16.7101 34.5539 16.6955C34.6965 16.6758 34.8393 16.6574 34.9826 16.6407C35.0628 16.6313 35.1433 16.6219 35.2238 16.6135C35.4336 16.5914 35.6437 16.5714 35.8546 16.5554C35.8915 16.5526 35.9288 16.5509 35.9656 16.5483C36.1571 16.5349 36.3492 16.5241 36.5413 16.5159C36.6031 16.5132 36.6653 16.5106 36.7273 16.5084C36.9527 16.5007 37.1784 16.495 37.4049 16.4943V16.4943L37.4063 16.4943C37.6325 16.4936 37.8585 16.498 38.0838 16.5043C38.1459 16.5061 38.208 16.5081 38.2699 16.5106C38.4622 16.5177 38.6542 16.5273 38.8457 16.5395C38.8826 16.5418 38.9199 16.5433 38.9568 16.5459C39.1678 16.5604 39.3781 16.5794 39.5879 16.6002C39.6685 16.6083 39.7491 16.6172 39.8293 16.6259C39.9728 16.6418 40.1158 16.6596 40.2584 16.6782C40.3634 16.6922 40.4684 16.706 40.573 16.7214C40.7315 16.7446 40.8894 16.7696 41.0472 16.7965C41.167 16.8169 41.2862 16.8389 41.4052 16.8612C41.4801 16.8754 41.5547 16.8902 41.6293 16.9051C49.4696 18.472 55.6707 24.3767 57.3491 31.8756C57.3615 31.9309 57.3742 31.986 57.386 32.0417C57.4123 32.1642 57.4373 32.287 57.4612 32.4104C57.4821 32.5193 57.5015 32.6285 57.5204 32.7378C57.545 32.8784 57.5678 33.0196 57.5893 33.1613C57.6092 33.294 57.6282 33.4269 57.6454 33.5601C57.6557 33.6412 57.666 33.7226 57.6753 33.8039C57.6983 34.0043 57.7195 34.2047 57.7362 34.4062C57.7387 34.4381 57.7402 34.4703 57.7428 34.5022C57.7574 34.6902 57.7689 34.8789 57.7776 35.0677C57.7804 35.1271 57.7832 35.1864 57.7855 35.246C57.7936 35.4636 57.7996 35.6815 57.8003 35.9C57.8024 36.571 57.7688 37.234 57.7014 37.8879C56.6891 47.6954 48.0394 55.3972 37.5284 55.4293C27.0172 55.4612 18.3192 47.812 17.245 38.0109C17.1734 37.3576 17.1357 36.6945 17.1336 36.0236C17.1329 35.805 17.1374 35.5869 17.1442 35.3695C17.1461 35.3099 17.1484 35.2506 17.151 35.1912C17.1585 35.0022 17.1688 34.8136 17.1822 34.6255C17.1846 34.5934 17.1859 34.5614 17.1883 34.5295C17.2034 34.3279 17.2234 34.1272 17.2453 33.9268C17.2543 33.8454 17.2639 33.7641 17.2737 33.6829C17.29 33.5492 17.3081 33.416 17.3274 33.283C17.3478 33.142 17.3698 33.0015 17.3932 32.8615C17.4117 32.7517 17.4304 32.6417 17.4507 32.5322C17.4737 32.4089 17.498 32.2857 17.5236 32.1631C17.535 32.1075 17.5474 32.0522 17.5594 31.9968C19.1903 24.4876 25.3541 18.5454 33.1844 16.9307Z" fill="#CA875E"/>
<path d="M22.3028 17.5823C20.1607 17.5823 18.4182 19.2508 18.4182 21.3014C18.4182 23.352 20.1608 25.0205 22.3028 25.0205C24.4447 25.0205 26.187 23.352 26.187 21.3014C26.187 19.2508 24.4447 17.5823 22.3028 17.5823Z" fill="#FF8A00"/>
<path d="M16.8161 58.4883C14.6741 58.4883 12.9316 60.1567 12.9316 62.2074C12.9316 64.2581 14.6743 65.9265 16.8161 65.9265C18.9581 65.9265 20.7007 64.258 20.7007 62.2074C20.7007 60.1567 18.958 58.4883 16.8161 58.4883Z" fill="#FF8A00"/>
<path d="M42.7023 29.7901C46.154 29.5922 49.1889 27.6404 49.1889 27.6404L47.5734 25.3232C47.5734 25.3232 45.0801 27.3897 42.0617 27.62C39.0463 27.8507 37.0619 25.4479 36.2707 24.4659C36.1043 24.2594 35.828 23.9715 35.8942 24.5573C36.0116 27.4937 39.2512 29.9872 42.7023 29.7901Z" fill="#FF7E00"/>
<path d="M40.987 26.1863C41.1836 26.3325 41.4809 26.3263 41.6708 26.1721L43.1685 24.9561C43.2708 24.873 43.3271 24.7581 43.3245 24.6387C43.3219 24.5194 43.2607 24.4066 43.1549 24.3277L41.6063 23.1754C41.4098 23.0291 41.1126 23.0353 40.9225 23.1896L39.4249 24.4051C39.3226 24.4883 39.2658 24.6036 39.2683 24.7229C39.2709 24.8422 39.3326 24.9547 39.4384 25.0335L40.987 26.1863Z" fill="#FF7E00"/>
<path d="M44.3828 30.0916C40.1795 30.4528 40.413 33.7801 37.8443 34.8602C37.0601 35.1897 36.3064 35.2341 35.5732 35.1351C35.3261 35.0261 35.0682 34.9243 34.7935 34.8324C37.3552 33.4558 37.827 30.2981 37.0431 28.9909C36.2592 27.6837 33.2515 25.9212 30.3042 26.9403C27.3563 27.9598 26.2025 29.5355 25.8415 30.3184C25.693 30.9602 27.9733 31.5515 27.9733 31.5515C28.5016 30.9934 31.0088 29.5726 32.9562 29.7601C34.9043 29.9475 35.0886 30.9936 34.8914 31.8646C34.7083 32.6735 32.5061 33.9215 29.8076 33.9774C29.5425 34.2112 30.7778 36.4213 31.0498 36.5072C31.3218 36.5926 32.176 36.164 33.9169 36.7666C35.6579 37.3696 37.4376 39.7966 34.7799 41.7224C32.5262 43.3553 25.6296 43.0531 25.7601 36.5707C25.9553 35.6087 25.4153 35.6203 25.0592 36.6314C24.7032 37.6425 24.1255 40.575 26.2221 42.9946C28.8246 45.9979 34.3509 46.8871 37.2585 43.9977C39.3348 41.9346 39.7381 38.9992 37.9779 36.8784C38.4122 36.8668 38.8517 36.8063 39.2865 36.677C42.5059 35.7202 42.9271 33.9546 44.3666 33.1035C45.8062 32.2525 47.9179 32.5293 48.2093 34.7821C48.4987 37.0183 47.5971 40.2015 44.8518 40.6008C42.1071 41.0002 40.9999 38.4904 41.0651 37.7362C41.1298 36.9821 40.641 36.8554 40.4863 37.1871C39.3051 39.7173 40.8825 44.3103 44.6063 44.233C48.3301 44.1558 50.6762 40.2744 50.5966 36.5805C50.5171 32.8862 48.5867 29.7308 44.3828 30.0916Z" fill="#FF7E00"/>
<path d="M86.46 42.2441C86.46 44.916 85.8291 46.9818 84.5674 48.4414C83.3304 49.8763 81.5492 50.5938 79.2236 50.5938C78.0114 50.5938 77.0094 50.3092 76.2178 49.7402C75.4508 49.1712 75.0674 48.429 75.0674 47.5137C75.0674 46.9447 75.2653 46.4622 75.6611 46.0664C76.0817 45.6458 76.5765 45.4355 77.1455 45.4355C78.2093 45.4355 78.9391 46.1406 79.335 47.5508C79.5081 48.0951 79.6689 48.4785 79.8174 48.7012C79.9658 48.9238 80.1885 49.0352 80.4854 49.0352C81.5492 49.0352 82.0811 48.0951 82.0811 46.2148V26.584C82.0811 25.8171 82.0316 25.1986 81.9326 24.7285C81.8584 24.2585 81.6852 23.8874 81.4131 23.6152C81.141 23.3431 80.7451 23.1576 80.2256 23.0586C79.7061 22.9349 79.0133 22.8483 78.1475 22.7988V21.9453H90.3193V22.7988C89.4535 22.8483 88.7607 22.9349 88.2412 23.0586C87.7464 23.1576 87.363 23.3431 87.0908 23.6152C86.8434 23.8874 86.6702 24.2585 86.5713 24.7285C86.4971 25.1986 86.46 25.8171 86.46 26.584V42.2441ZM106.722 45.5469C106.722 46.487 106.808 47.1426 106.981 47.5137C107.155 47.86 107.489 48.0332 107.983 48.0332C108.552 48.0332 109.171 47.7734 109.839 47.2539V48.3301C109.121 49.1217 108.491 49.666 107.946 49.9629C107.402 50.2598 106.771 50.4082 106.054 50.4082C105.188 50.4082 104.545 50.1732 104.124 49.7031C103.728 49.2083 103.481 48.3919 103.382 47.2539C102.095 48.3672 100.97 49.1712 100.005 49.666C99.04 50.1608 98.0999 50.4082 97.1846 50.4082C95.8486 50.4082 94.7601 49.9876 93.9189 49.1465C93.1025 48.3053 92.6943 47.2168 92.6943 45.8809C92.6943 45.2129 92.818 44.5449 93.0654 43.877C93.3376 43.1842 93.721 42.6276 94.2158 42.207C94.6611 41.8112 95.0693 41.4772 95.4404 41.2051C95.8363 40.9082 96.3434 40.6113 96.9619 40.3145C97.5804 39.9928 98.3844 39.6341 99.374 39.2383C100.364 38.8424 101.675 38.3105 103.308 37.6426V34.9336C103.308 33.7708 103.023 32.8926 102.454 32.2988C101.91 31.7051 101.118 31.4082 100.079 31.4082C99.2132 31.4082 98.4834 31.6185 97.8896 32.0391C97.3206 32.4349 97.0361 32.9173 97.0361 33.4863C97.0361 33.709 97.0609 33.9935 97.1104 34.3398C97.1846 34.6862 97.2217 34.9707 97.2217 35.1934C97.2217 35.6882 97.0238 36.1087 96.6279 36.4551C96.2568 36.8014 95.8239 36.9746 95.3291 36.9746C94.8343 36.9746 94.4014 36.8014 94.0303 36.4551C93.6839 36.084 93.5107 35.651 93.5107 35.1562C93.5107 34.612 93.6592 34.0553 93.9561 33.4863C94.2777 32.9173 94.7106 32.4102 95.2549 31.9648C95.8239 31.4701 96.5785 31.0866 97.5186 30.8145C98.4834 30.5423 99.5225 30.4062 100.636 30.4062C101.922 30.4062 102.998 30.6289 103.864 31.0742C104.755 31.4948 105.435 32.0885 105.905 32.8555C106.202 33.3503 106.412 33.9316 106.536 34.5996C106.66 35.2428 106.722 36.1211 106.722 37.2344V45.5469ZM103.308 38.6816C102.021 39.1517 100.92 39.6094 100.005 40.0547C99.1143 40.4753 98.3844 40.9206 97.8154 41.3906C97.2712 41.8359 96.8753 42.3184 96.6279 42.8379C96.3805 43.3574 96.2568 43.9264 96.2568 44.5449V44.7305C96.2568 45.1758 96.3311 45.6087 96.4795 46.0293C96.6279 46.4251 96.8258 46.7715 97.0732 47.0684C97.3454 47.3652 97.6546 47.6003 98.001 47.7734C98.3473 47.9466 98.7061 48.0332 99.0771 48.0332C99.5225 48.0332 100.017 47.9466 100.562 47.7734C101.131 47.5755 101.662 47.3405 102.157 47.0684C102.652 46.7962 102.961 46.5117 103.085 46.2148C103.233 45.918 103.308 45.4479 103.308 44.8047V38.6816ZM117.521 30.6289V45.6953C117.521 46.4622 117.545 47.0807 117.595 47.5508C117.669 47.9961 117.817 48.3548 118.04 48.627C118.263 48.8743 118.572 49.0475 118.968 49.1465C119.388 49.2454 119.957 49.332 120.675 49.4062V50H110.618V49.4062C111.36 49.3568 111.942 49.2826 112.362 49.1836C112.808 49.0599 113.142 48.8743 113.364 48.627C113.612 48.3548 113.772 47.9961 113.847 47.5508C113.921 47.0807 113.958 46.4622 113.958 45.6953V35.8613C113.958 34.9212 113.847 34.2656 113.624 33.8945C113.426 33.4987 113.08 33.3008 112.585 33.3008C112.387 33.3008 112.152 33.3132 111.88 33.3379C111.632 33.3626 111.373 33.3997 111.101 33.4492L110.804 33.4863V32.8555L117.335 30.5176L117.521 30.6289ZM115.405 21.0547C115.999 21.0547 116.506 21.2773 116.927 21.7227C117.347 22.1432 117.558 22.6504 117.558 23.2441C117.558 23.8626 117.347 24.3822 116.927 24.8027C116.531 25.1986 116.011 25.3965 115.368 25.3965C114.75 25.3965 114.243 25.1986 113.847 24.8027C113.451 24.3822 113.253 23.8626 113.253 23.2441C113.253 22.6504 113.463 22.1432 113.884 21.7227C114.304 21.2773 114.812 21.0547 115.405 21.0547Z" fill="#FF7E00"/>
<path d="M144.685 42.2441C144.685 44.916 144.054 46.9818 142.792 48.4414C141.555 49.8763 139.774 50.5938 137.448 50.5938C136.236 50.5938 135.234 50.3092 134.442 49.7402C133.675 49.1712 133.292 48.429 133.292 47.5137C133.292 46.9447 133.49 46.4622 133.886 46.0664C134.306 45.6458 134.801 45.4355 135.37 45.4355C136.434 45.4355 137.164 46.1406 137.56 47.5508C137.733 48.0951 137.894 48.4785 138.042 48.7012C138.19 48.9238 138.413 49.0352 138.71 49.0352C139.774 49.0352 140.306 48.0951 140.306 46.2148V26.584C140.306 25.8171 140.256 25.1986 140.157 24.7285C140.083 24.2585 139.91 23.8874 139.638 23.6152C139.366 23.3431 138.97 23.1576 138.45 23.0586C137.931 22.9349 137.238 22.8483 136.372 22.7988V21.9453H148.544V22.7988C147.678 22.8483 146.985 22.9349 146.466 23.0586C145.971 23.1576 145.588 23.3431 145.315 23.6152C145.068 23.8874 144.895 24.2585 144.796 24.7285C144.722 25.1986 144.685 25.8171 144.685 26.584V42.2441ZM169.474 31.5938C168.979 31.6432 168.571 31.804 168.249 32.0762C167.952 32.3483 167.668 32.8184 167.396 33.4863L160.901 50.7793C160.308 52.3132 159.739 53.612 159.194 54.6758C158.65 55.7643 158.093 56.6426 157.524 57.3105C156.98 57.9785 156.399 58.4609 155.78 58.7578C155.162 59.0794 154.481 59.2402 153.739 59.2402C152.824 59.2402 152.069 59.0052 151.476 58.5352C150.907 58.0898 150.622 57.5085 150.622 56.791C150.622 56.2467 150.795 55.8014 151.142 55.4551C151.488 55.1335 151.921 54.9727 152.44 54.9727C152.787 54.9727 153.146 54.9974 153.517 55.0469C153.888 55.1211 154.259 55.2324 154.63 55.3809C154.877 55.5046 155.088 55.5788 155.261 55.6035C155.434 55.6283 155.582 55.6406 155.706 55.6406C156.028 55.6406 156.386 55.4674 156.782 55.1211C157.178 54.7995 157.537 54.3665 157.858 53.8223C158.032 53.5007 158.217 53.1048 158.415 52.6348C158.613 52.1895 158.799 51.7441 158.972 51.2988C159.145 50.8535 159.281 50.4329 159.38 50.0371C159.504 49.666 159.565 49.4062 159.565 49.2578C159.565 48.9115 159.392 48.3672 159.046 47.625C158.724 46.8581 158.267 45.9551 157.673 44.916C157.549 44.7428 157.438 44.5573 157.339 44.3594C157.24 44.1615 157.153 43.9264 157.079 43.6543L156.931 43.3203L152.106 32.8926C151.81 32.1751 151.092 31.7174 149.954 31.5195V30.9258H158.675V31.5938C157.759 31.6432 157.116 31.7546 156.745 31.9277C156.399 32.0762 156.226 32.3359 156.226 32.707C156.226 32.9792 156.25 33.2513 156.3 33.5234C156.374 33.7708 156.498 34.043 156.671 34.3398L161.532 45.0273L165.614 33.3379C165.763 33.0905 165.837 32.8678 165.837 32.6699C165.837 32.3236 165.651 32.0638 165.28 31.8906C164.909 31.6927 164.402 31.5938 163.759 31.5938V30.9258H169.474V31.5938ZM181.126 30.5176C182.487 30.5176 183.736 30.7526 184.874 31.2227C186.012 31.6927 186.989 32.3607 187.806 33.2266C188.647 34.0677 189.302 35.0697 189.772 36.2324C190.243 37.3952 190.478 38.6816 190.478 40.0918C190.478 41.5762 190.23 42.9492 189.735 44.2109C189.265 45.4479 188.61 46.5365 187.769 47.4766C186.927 48.3919 185.925 49.1094 184.763 49.6289C183.625 50.1484 182.388 50.4082 181.052 50.4082C179.716 50.4082 178.479 50.1608 177.341 49.666C176.203 49.1712 175.226 48.4785 174.409 47.5879C173.593 46.6973 172.95 45.6458 172.479 44.4336C172.009 43.2214 171.774 41.8978 171.774 40.4629C171.774 39.0033 171.997 37.6673 172.442 36.4551C172.912 35.2181 173.556 34.1667 174.372 33.3008C175.188 32.4102 176.166 31.7298 177.304 31.2598C178.466 30.765 179.741 30.5176 181.126 30.5176ZM180.495 31.7051C179.011 31.7051 177.823 32.3112 176.933 33.5234C176.042 34.7357 175.597 36.3438 175.597 38.3477C175.597 39.8568 175.757 41.3288 176.079 42.7637C176.401 44.1738 176.858 45.4355 177.452 46.5488C177.897 47.4147 178.491 48.0827 179.233 48.5527C179.976 49.0228 180.78 49.2578 181.646 49.2578C183.204 49.2578 184.416 48.5775 185.282 47.2168C186.173 45.8314 186.618 43.9388 186.618 41.5391C186.618 39.7331 186.358 38.0508 185.839 36.4922C185.319 34.9336 184.614 33.7585 183.724 32.9668C183.254 32.5215 182.759 32.1999 182.239 32.002C181.72 31.804 181.138 31.7051 180.495 31.7051ZM202.538 32.2617H198.233V44.4336C198.233 45.7943 198.407 46.7715 198.753 47.3652C199.099 47.9342 199.656 48.2188 200.423 48.2188C200.918 48.2188 201.351 48.1198 201.722 47.9219C202.093 47.6992 202.526 47.3034 203.021 46.7344L203.54 47.2539C202.204 49.3568 200.497 50.4082 198.419 50.4082C195.92 50.4082 194.671 48.6146 194.671 45.0273V32.2617H192.444C192.345 32.237 192.296 32.1504 192.296 32.002C192.296 31.7546 192.531 31.4824 193.001 31.1855C194.114 30.5423 195.487 29.0332 197.12 26.6582C197.244 26.4603 197.38 26.2747 197.528 26.1016C197.701 25.9036 197.85 25.6934 197.974 25.4707C198.073 25.4707 198.134 25.5078 198.159 25.582C198.209 25.6562 198.233 25.8047 198.233 26.0273V30.9258H202.538V32.2617ZM211.11 30.6289V45.6953C211.11 46.4622 211.135 47.0807 211.185 47.5508C211.259 47.9961 211.407 48.3548 211.63 48.627C211.853 48.8743 212.162 49.0475 212.558 49.1465C212.978 49.2454 213.547 49.332 214.265 49.4062V50H204.208V49.4062C204.95 49.3568 205.532 49.2826 205.952 49.1836C206.397 49.0599 206.731 48.8743 206.954 48.627C207.201 48.3548 207.362 47.9961 207.437 47.5508C207.511 47.0807 207.548 46.4622 207.548 45.6953V35.8613C207.548 34.9212 207.437 34.2656 207.214 33.8945C207.016 33.4987 206.67 33.3008 206.175 33.3008C205.977 33.3008 205.742 33.3132 205.47 33.3379C205.222 33.3626 204.963 33.3997 204.69 33.4492L204.394 33.4863V32.8555L210.925 30.5176L211.11 30.6289ZM208.995 21.0547C209.589 21.0547 210.096 21.2773 210.517 21.7227C210.937 22.1432 211.147 22.6504 211.147 23.2441C211.147 23.8626 210.937 24.3822 210.517 24.8027C210.121 25.1986 209.601 25.3965 208.958 25.3965C208.34 25.3965 207.832 25.1986 207.437 24.8027C207.041 24.3822 206.843 23.8626 206.843 23.2441C206.843 22.6504 207.053 22.1432 207.474 21.7227C207.894 21.2773 208.401 21.0547 208.995 21.0547Z" fill="#CA875E"/>
</svg>
