<svg width="269" height="79" viewBox="0 0 269 79" fill="none" xmlns="http://www.w3.org/2000/svg">
<path d="M43.4518 78.8191C36.074 78.8611 28.8256 77.0599 22.4901 73.6101C21.871 73.273 21.6624 72.5315 22.0242 71.9543C22.386 71.3769 23.1817 71.1825 23.8007 71.5195C29.7342 74.7504 36.5241 76.4374 43.4366 76.398C64.6813 76.277 81.8643 60.0679 81.7403 40.2651C81.7177 36.6669 81.1268 33.1187 79.9836 29.7193C79.769 29.0814 78.5864 24.3658 79.2708 24.1656C79.9556 23.9653 82.2477 28.3567 82.4623 28.9946C83.6826 32.6241 84.3136 36.4109 84.3376 40.2503C84.4018 50.4897 80.1843 60.1406 72.4617 67.4255C64.7394 74.7101 54.4369 78.7565 43.4518 78.8191Z" fill="#CA875E"/>
<path d="M4.70452 56.3555L4.70456 56.3556C6.98086 61.1619 10.2178 65.434 14.3185 69.0526C14.7679 69.4492 15.3325 69.6357 15.88 69.6341C16.4629 69.6324 17.0625 69.4168 17.5179 68.9682C18.4266 68.0733 18.3805 66.6357 17.4275 65.7946L17.4274 65.7946C9.8977 59.1505 5.75305 50.1939 5.72184 40.568C5.65963 21.3823 22.3774 5.60446 43.1373 5.54301C58.1252 5.49865 71.6553 13.7369 77.6452 26.4605C78.1776 27.5919 79.5296 28.0367 80.64 27.5824L80.6401 27.5824C81.7811 27.1154 82.3857 25.8098 81.8334 24.6361L81.8333 24.636C75.0724 10.2747 59.8627 1.07239 43.123 1.12193C31.8943 1.15517 21.3338 5.26354 13.398 12.7066C5.45961 20.1521 1.09016 30.0531 1.1243 40.5816C1.14209 46.0685 2.34752 51.3775 4.70452 56.3555Z" fill="#FF7E00" stroke="#FF7E00" stroke-width="2"/>
<path d="M69.4782 39.5574C69.4752 39.4828 69.4719 39.4084 69.4683 39.334C69.4566 39.0953 69.442 38.8571 69.4231 38.6201C69.4199 38.581 69.4182 38.5418 69.4145 38.5027C69.3931 38.2479 69.3658 37.9946 69.3357 37.7421C69.324 37.6423 69.311 37.5427 69.2978 37.443C69.2751 37.2703 69.2499 37.0983 69.2232 36.9266C69.1978 36.7627 69.1706 36.5994 69.1416 36.4363C69.1149 36.2863 69.0878 36.1364 69.058 35.9873C69.0286 35.8379 68.997 35.6892 68.9645 35.5404C68.9469 35.461 68.9287 35.3815 68.9103 35.3022C68.1937 32.1831 66.8296 29.2205 64.8572 26.5607C64.8233 26.5149 64.7856 26.4731 64.7464 26.4331C62.9315 24.0232 60.6631 21.9318 58.0574 20.2665C58.0135 20.23 57.9681 20.1954 57.9184 20.1638C55.5819 18.6942 53.0333 17.6018 50.3596 16.9026C50.3547 16.9013 50.3498 16.9 50.3446 16.8986C49.7817 16.7517 49.2135 16.6225 48.6401 16.5112C48.5348 16.4907 48.4292 16.4703 48.3234 16.4508C48.1752 16.4239 48.027 16.3972 47.8782 16.3725C47.6588 16.336 47.4386 16.3019 47.2174 16.2707C47.0996 16.2541 46.9816 16.2393 46.8635 16.2241C46.6748 16.1998 46.4857 16.1773 46.296 16.1567C46.1945 16.1459 46.0931 16.1349 45.9912 16.125C45.7194 16.0987 45.4466 16.0751 45.1724 16.0566C45.1263 16.0534 45.0805 16.0517 45.0344 16.0489C44.786 16.0333 44.5366 16.0213 44.2866 16.0123C44.2068 16.0093 44.1269 16.0066 44.0469 16.0045C43.7563 15.9964 43.465 15.9911 43.1719 15.9919V15.9919L43.1703 15.9919C42.8775 15.9928 42.5861 15.9998 42.2955 16.0096C42.2155 16.0123 42.1357 16.0155 42.0558 16.0189C41.8059 16.0295 41.5563 16.0428 41.3083 16.0599C41.2622 16.063 41.2164 16.0649 41.1703 16.0684C40.8963 16.0885 40.6238 16.1137 40.352 16.1416C40.2502 16.1521 40.1489 16.1635 40.0474 16.1752C39.8577 16.1968 39.6687 16.2206 39.4804 16.2459C39.3623 16.2616 39.2445 16.2773 39.1268 16.2945C38.906 16.3271 38.6858 16.3626 38.4668 16.4002C38.3181 16.4257 38.17 16.4534 38.0221 16.4812C37.9163 16.5013 37.811 16.522 37.7058 16.5434C37.1331 16.6583 36.5658 16.7909 36.0039 16.9409C35.9989 16.9423 35.9938 16.9436 35.9889 16.945C33.3196 17.6598 30.7782 18.7672 28.4515 20.2507C28.402 20.2823 28.3566 20.3175 28.3132 20.3542C25.7184 22.0346 23.4637 24.1396 21.6644 26.5601C21.6255 26.6004 21.5884 26.6424 21.5545 26.6883C19.5994 29.3598 18.2544 32.3305 17.5584 35.4536C17.5406 35.533 17.5227 35.6124 17.5056 35.6922C17.474 35.8411 17.4435 35.99 17.415 36.1396C17.3863 36.2888 17.3603 36.4388 17.3344 36.5891C17.3065 36.7524 17.2804 36.9158 17.256 37.0799C17.2304 37.2517 17.2064 37.4238 17.1848 37.5967C17.1722 37.6965 17.1602 37.7961 17.1488 37.896C17.1204 38.1487 17.0947 38.4022 17.0749 38.6571C17.0715 38.6962 17.0702 38.7353 17.0671 38.7745C17.0498 39.0115 17.0365 39.2498 17.0266 39.4886C17.0233 39.5631 17.0206 39.6375 17.0181 39.7121C17.0092 39.9852 17.0035 40.2591 17.0044 40.5345C17.0051 40.7454 17.0087 40.9555 17.0151 41.1649C17.0279 41.5839 17.0519 42.0003 17.0873 42.4138C17.158 43.2408 17.2726 44.0564 17.4294 44.8583C19.6637 56.2862 30.4413 64.96 43.3305 64.922C56.22 64.884 66.941 56.1468 69.1009 44.7059C69.2525 43.903 69.362 43.0868 69.4271 42.2594C69.4595 41.8456 69.4808 41.4291 69.4911 41.0102C69.4962 40.8007 69.4984 40.5903 69.4977 40.3797C69.4964 40.1043 69.489 39.8306 69.4782 39.5574ZM38.2695 18.9071C38.3562 18.8898 38.4429 18.8723 38.5299 18.8559C38.6682 18.8298 38.8069 18.8042 38.9458 18.7803C39.129 18.7489 39.3125 18.7193 39.4967 18.6919C39.6182 18.6738 39.7403 18.6574 39.8623 18.6408C40.0282 18.6185 40.1942 18.5976 40.3609 18.5787C40.4542 18.5681 40.5479 18.5575 40.6415 18.5479C40.8854 18.523 41.1299 18.5002 41.3751 18.4821C41.418 18.479 41.4614 18.4771 41.5043 18.4741C41.7269 18.4589 41.9503 18.4468 42.1737 18.4374C42.2457 18.4344 42.318 18.4314 42.3901 18.429C42.6523 18.4203 42.9148 18.4138 43.1782 18.413V18.413L43.1798 18.413C43.443 18.4123 43.7058 18.4172 43.9679 18.4243C44.04 18.4264 44.1123 18.4287 44.1843 18.4315C44.4079 18.4395 44.6313 18.4504 44.854 18.4642C44.8969 18.4668 44.9403 18.4685 44.9832 18.4715C45.2285 18.4879 45.4731 18.5094 45.7172 18.533C45.8109 18.5421 45.9046 18.5522 45.998 18.5621C46.1648 18.58 46.3311 18.6002 46.497 18.6213C46.6191 18.6371 46.7413 18.6528 46.863 18.6702C47.0473 18.6965 47.2309 18.7248 47.4144 18.7553C47.5538 18.7784 47.6924 18.8033 47.8308 18.8285C47.9179 18.8446 48.0047 18.8614 48.0915 18.8782C57.2102 20.6526 64.4226 27.3388 66.3748 35.8302C66.3892 35.8929 66.404 35.9553 66.4177 36.0183C66.4483 36.157 66.4774 36.296 66.5051 36.4358C66.5295 36.5591 66.5521 36.6828 66.574 36.8065C66.6026 36.9658 66.6292 37.1256 66.6541 37.2861C66.6772 37.4364 66.6994 37.5868 66.7194 37.7377C66.7314 37.8295 66.7434 37.9217 66.7542 38.0137C66.7809 38.2407 66.8056 38.4676 66.825 38.6958C66.828 38.7318 66.8297 38.7684 66.8327 38.8045C66.8496 39.0174 66.863 39.231 66.8732 39.4448C66.8765 39.512 66.8797 39.5793 66.8824 39.6466C66.8918 39.8931 66.8987 40.1399 66.8996 40.3872C66.902 41.1471 66.863 41.8979 66.7846 42.6383C65.6074 53.7437 55.5473 62.4647 43.3223 62.5009C31.0972 62.537 20.9807 53.8753 19.7312 42.777C19.648 42.0372 19.6041 41.2864 19.6016 40.5267C19.6008 40.2792 19.6061 40.0322 19.614 39.786C19.6162 39.7185 19.6189 39.6514 19.6219 39.5841C19.6307 39.3701 19.6427 39.1566 19.6582 38.9436C19.661 38.9072 19.6624 38.8709 19.6652 38.8348C19.6828 38.6066 19.7062 38.3793 19.7316 38.1524C19.7421 38.0603 19.7532 37.9681 19.7646 37.8762C19.7835 37.7249 19.8046 37.574 19.8271 37.4234C19.8508 37.2637 19.8763 37.1046 19.9036 36.9461C19.925 36.8218 19.9468 36.6973 19.9705 36.5732C19.9972 36.4336 20.0255 36.2941 20.0552 36.1553C20.0685 36.0924 20.0829 36.0297 20.0969 35.9669C21.9936 27.4639 29.1624 20.7355 38.2695 18.9071Z" fill="#CA875E"/>
<path d="M25.6134 19.6445C23.1221 19.6445 21.0955 21.5339 21.0955 23.8559C21.0955 26.1778 23.1222 28.0672 25.6134 28.0672C28.1046 28.0672 30.1311 26.1778 30.1311 23.8559C30.1311 21.5339 28.1046 19.6445 25.6134 19.6445Z" fill="#FF8A00"/>
<path d="M20.5178 66C18.0266 66 16 67.8892 16 70.2113C16 72.5334 18.0268 74.4227 20.5178 74.4227C23.0092 74.4227 25.036 72.5333 25.036 70.2113C25.036 67.8892 23.009 66 20.5178 66Z" fill="#FF8A00"/>
<path d="M49.3392 33.4681C53.3537 33.244 56.8836 31.0338 56.8836 31.0338L55.0046 28.4099C55.0046 28.4099 52.1048 30.7499 48.5941 31.0108C45.087 31.272 42.7791 28.5512 41.8588 27.4392C41.6653 27.2053 41.344 26.8793 41.421 27.5427C41.5575 30.8677 45.3253 33.6912 49.3392 33.4681Z" fill="#FF7E00"/>
<path d="M47.3442 29.3874C47.5728 29.553 47.9186 29.546 48.1395 29.3713L49.8814 27.9943C50.0003 27.9002 50.0659 27.7701 50.0629 27.635C50.0599 27.4999 49.9887 27.3721 49.8656 27.2828L48.0644 25.978C47.8359 25.8123 47.4902 25.8193 47.2692 25.994L45.5274 27.3704C45.4084 27.4646 45.3423 27.5952 45.3453 27.7303C45.3483 27.8654 45.42 27.9927 45.5431 28.082L47.3442 29.3874Z" fill="#FF7E00"/>
<path d="M51.2942 33.8092C46.4054 34.2182 46.677 37.9859 43.6894 39.2089C42.7774 39.582 41.9007 39.6323 41.048 39.5203C40.7606 39.3968 40.4606 39.2815 40.1411 39.1775C43.1206 37.6187 43.6693 34.0431 42.7576 32.5628C41.8459 31.0826 38.3477 29.0868 34.9198 30.2408C31.4912 31.3953 30.1493 33.1795 29.7295 34.066C29.5567 34.7927 32.2089 35.4623 32.2089 35.4623C32.8233 34.8303 35.7393 33.2215 38.0043 33.4338C40.27 33.6461 40.4844 34.8306 40.255 35.8169C40.042 36.7328 37.4808 38.146 34.3423 38.2093C34.034 38.4741 35.4707 40.9766 35.787 41.0739C36.1033 41.1706 37.0969 40.6853 39.1217 41.3676C41.1466 42.0504 43.2164 44.7987 40.1253 46.9793C37.5042 48.8283 29.483 48.4861 29.6347 41.1458C29.8618 40.0565 29.2338 40.0696 28.8196 41.2145C28.4055 42.3595 27.7336 45.68 30.1722 48.4199C33.199 51.8207 39.6264 52.8275 43.0081 49.5558C45.423 47.2197 45.8921 43.8957 43.8449 41.4943C44.35 41.4811 44.8611 41.4126 45.3669 41.2662C49.1112 40.1828 49.6011 38.1834 51.2753 37.2198C52.9496 36.2561 55.4057 36.5696 55.7446 39.1205C56.0811 41.6527 55.0325 45.2571 51.8396 45.7093C48.6474 46.1615 47.3596 43.3195 47.4355 42.4656C47.5107 41.6116 46.9421 41.4682 46.7622 41.8438C45.3884 44.7089 47.223 49.9097 51.554 49.8222C55.8851 49.7348 58.6137 45.3397 58.5212 41.157C58.4287 36.9736 56.1835 33.4007 51.2942 33.8092Z" fill="#FF7E00"/>
<path d="M102.627 44.2441C102.627 46.916 101.996 48.9818 100.734 50.4414C99.4974 51.8763 97.7161 52.5938 95.3906 52.5938C94.1784 52.5938 93.1764 52.3092 92.3848 51.7402C91.6178 51.1712 91.2344 50.429 91.2344 49.5137C91.2344 48.9447 91.4323 48.4622 91.8281 48.0664C92.2487 47.6458 92.7435 47.4355 93.3125 47.4355C94.3763 47.4355 95.1061 48.1406 95.502 49.5508C95.6751 50.0951 95.8359 50.4785 95.9844 50.7012C96.1328 50.9238 96.3555 51.0352 96.6523 51.0352C97.7161 51.0352 98.248 50.0951 98.248 48.2148V28.584C98.248 27.8171 98.1986 27.1986 98.0996 26.7285C98.0254 26.2585 97.8522 25.8874 97.5801 25.6152C97.3079 25.3431 96.9121 25.1576 96.3926 25.0586C95.873 24.9349 95.1803 24.8483 94.3145 24.7988V23.9453H106.486V24.7988C105.62 24.8483 104.928 24.9349 104.408 25.0586C103.913 25.1576 103.53 25.3431 103.258 25.6152C103.01 25.8874 102.837 26.2585 102.738 26.7285C102.664 27.1986 102.627 27.8171 102.627 28.584V44.2441ZM122.889 47.5469C122.889 48.487 122.975 49.1426 123.148 49.5137C123.322 49.86 123.656 50.0332 124.15 50.0332C124.719 50.0332 125.338 49.7734 126.006 49.2539V50.3301C125.288 51.1217 124.658 51.666 124.113 51.9629C123.569 52.2598 122.938 52.4082 122.221 52.4082C121.355 52.4082 120.712 52.1732 120.291 51.7031C119.895 51.2083 119.648 50.3919 119.549 49.2539C118.262 50.3672 117.137 51.1712 116.172 51.666C115.207 52.1608 114.267 52.4082 113.352 52.4082C112.016 52.4082 110.927 51.9876 110.086 51.1465C109.27 50.3053 108.861 49.2168 108.861 47.8809C108.861 47.2129 108.985 46.5449 109.232 45.877C109.505 45.1842 109.888 44.6276 110.383 44.207C110.828 43.8112 111.236 43.4772 111.607 43.2051C112.003 42.9082 112.51 42.6113 113.129 42.3145C113.747 41.9928 114.551 41.6341 115.541 41.2383C116.531 40.8424 117.842 40.3105 119.475 39.6426V36.9336C119.475 35.7708 119.19 34.8926 118.621 34.2988C118.077 33.7051 117.285 33.4082 116.246 33.4082C115.38 33.4082 114.65 33.6185 114.057 34.0391C113.488 34.4349 113.203 34.9173 113.203 35.4863C113.203 35.709 113.228 35.9935 113.277 36.3398C113.352 36.6862 113.389 36.9707 113.389 37.1934C113.389 37.6882 113.191 38.1087 112.795 38.4551C112.424 38.8014 111.991 38.9746 111.496 38.9746C111.001 38.9746 110.568 38.8014 110.197 38.4551C109.851 38.084 109.678 37.651 109.678 37.1562C109.678 36.612 109.826 36.0553 110.123 35.4863C110.445 34.9173 110.878 34.4102 111.422 33.9648C111.991 33.4701 112.745 33.0866 113.686 32.8145C114.65 32.5423 115.689 32.4062 116.803 32.4062C118.089 32.4062 119.165 32.6289 120.031 33.0742C120.922 33.4948 121.602 34.0885 122.072 34.8555C122.369 35.3503 122.579 35.9316 122.703 36.5996C122.827 37.2428 122.889 38.1211 122.889 39.2344V47.5469ZM119.475 40.6816C118.188 41.1517 117.087 41.6094 116.172 42.0547C115.281 42.4753 114.551 42.9206 113.982 43.3906C113.438 43.8359 113.042 44.3184 112.795 44.8379C112.548 45.3574 112.424 45.9264 112.424 46.5449V46.7305C112.424 47.1758 112.498 47.6087 112.646 48.0293C112.795 48.4251 112.993 48.7715 113.24 49.0684C113.512 49.3652 113.822 49.6003 114.168 49.7734C114.514 49.9466 114.873 50.0332 115.244 50.0332C115.689 50.0332 116.184 49.9466 116.729 49.7734C117.298 49.5755 117.829 49.3405 118.324 49.0684C118.819 48.7962 119.128 48.5117 119.252 48.2148C119.4 47.918 119.475 47.4479 119.475 46.8047V40.6816ZM133.688 32.6289V47.6953C133.688 48.4622 133.712 49.0807 133.762 49.5508C133.836 49.9961 133.984 50.3548 134.207 50.627C134.43 50.8743 134.739 51.0475 135.135 51.1465C135.555 51.2454 136.124 51.332 136.842 51.4062V52H126.785V51.4062C127.527 51.3568 128.109 51.2826 128.529 51.1836C128.975 51.0599 129.309 50.8743 129.531 50.627C129.779 50.3548 129.939 49.9961 130.014 49.5508C130.088 49.0807 130.125 48.4622 130.125 47.6953V37.8613C130.125 36.9212 130.014 36.2656 129.791 35.8945C129.593 35.4987 129.247 35.3008 128.752 35.3008C128.554 35.3008 128.319 35.3132 128.047 35.3379C127.799 35.3626 127.54 35.3997 127.268 35.4492L126.971 35.4863V34.8555L133.502 32.5176L133.688 32.6289ZM131.572 23.0547C132.166 23.0547 132.673 23.2773 133.094 23.7227C133.514 24.1432 133.725 24.6504 133.725 25.2441C133.725 25.8626 133.514 26.3822 133.094 26.8027C132.698 27.1986 132.178 27.3965 131.535 27.3965C130.917 27.3965 130.41 27.1986 130.014 26.8027C129.618 26.3822 129.42 25.8626 129.42 25.2441C129.42 24.6504 129.63 24.1432 130.051 23.7227C130.471 23.2773 130.979 23.0547 131.572 23.0547Z" fill="#FF7E00"/>
<path d="M160.852 44.2441C160.852 46.916 160.221 48.9818 158.959 50.4414C157.722 51.8763 155.941 52.5938 153.615 52.5938C152.403 52.5938 151.401 52.3092 150.609 51.7402C149.842 51.1712 149.459 50.429 149.459 49.5137C149.459 48.9447 149.657 48.4622 150.053 48.0664C150.473 47.6458 150.968 47.4355 151.537 47.4355C152.601 47.4355 153.331 48.1406 153.727 49.5508C153.9 50.0951 154.061 50.4785 154.209 50.7012C154.357 50.9238 154.58 51.0352 154.877 51.0352C155.941 51.0352 156.473 50.0951 156.473 48.2148V28.584C156.473 27.8171 156.423 27.1986 156.324 26.7285C156.25 26.2585 156.077 25.8874 155.805 25.6152C155.533 25.3431 155.137 25.1576 154.617 25.0586C154.098 24.9349 153.405 24.8483 152.539 24.7988V23.9453H164.711V24.7988C163.845 24.8483 163.152 24.9349 162.633 25.0586C162.138 25.1576 161.755 25.3431 161.482 25.6152C161.235 25.8874 161.062 26.2585 160.963 26.7285C160.889 27.1986 160.852 27.8171 160.852 28.584V44.2441ZM185.641 33.5938C185.146 33.6432 184.738 33.804 184.416 34.0762C184.119 34.3483 183.835 34.8184 183.562 35.4863L177.068 52.7793C176.475 54.3132 175.906 55.612 175.361 56.6758C174.817 57.7643 174.26 58.6426 173.691 59.3105C173.147 59.9785 172.566 60.4609 171.947 60.7578C171.329 61.0794 170.648 61.2402 169.906 61.2402C168.991 61.2402 168.236 61.0052 167.643 60.5352C167.074 60.0898 166.789 59.5085 166.789 58.791C166.789 58.2467 166.962 57.8014 167.309 57.4551C167.655 57.1335 168.088 56.9727 168.607 56.9727C168.954 56.9727 169.312 56.9974 169.684 57.0469C170.055 57.1211 170.426 57.2324 170.797 57.3809C171.044 57.5046 171.255 57.5788 171.428 57.6035C171.601 57.6283 171.749 57.6406 171.873 57.6406C172.195 57.6406 172.553 57.4674 172.949 57.1211C173.345 56.7995 173.704 56.3665 174.025 55.8223C174.199 55.5007 174.384 55.1048 174.582 54.6348C174.78 54.1895 174.965 53.7441 175.139 53.2988C175.312 52.8535 175.448 52.4329 175.547 52.0371C175.671 51.666 175.732 51.4062 175.732 51.2578C175.732 50.9115 175.559 50.3672 175.213 49.625C174.891 48.8581 174.434 47.9551 173.84 46.916C173.716 46.7428 173.605 46.5573 173.506 46.3594C173.407 46.1615 173.32 45.9264 173.246 45.6543L173.098 45.3203L168.273 34.8926C167.977 34.1751 167.259 33.7174 166.121 33.5195V32.9258H174.842V33.5938C173.926 33.6432 173.283 33.7546 172.912 33.9277C172.566 34.0762 172.393 34.3359 172.393 34.707C172.393 34.9792 172.417 35.2513 172.467 35.5234C172.541 35.7708 172.665 36.043 172.838 36.3398L177.699 47.0273L181.781 35.3379C181.93 35.0905 182.004 34.8678 182.004 34.6699C182.004 34.3236 181.818 34.0638 181.447 33.8906C181.076 33.6927 180.569 33.5938 179.926 33.5938V32.9258H185.641V33.5938ZM197.293 32.5176C198.654 32.5176 199.903 32.7526 201.041 33.2227C202.179 33.6927 203.156 34.3607 203.973 35.2266C204.814 36.0677 205.469 37.0697 205.939 38.2324C206.41 39.3952 206.645 40.6816 206.645 42.0918C206.645 43.5762 206.397 44.9492 205.902 46.2109C205.432 47.4479 204.777 48.5365 203.936 49.4766C203.094 50.3919 202.092 51.1094 200.93 51.6289C199.792 52.1484 198.555 52.4082 197.219 52.4082C195.883 52.4082 194.646 52.1608 193.508 51.666C192.37 51.1712 191.393 50.4785 190.576 49.5879C189.76 48.6973 189.117 47.6458 188.646 46.4336C188.176 45.2214 187.941 43.8978 187.941 42.4629C187.941 41.0033 188.164 39.6673 188.609 38.4551C189.079 37.2181 189.723 36.1667 190.539 35.3008C191.355 34.4102 192.333 33.7298 193.471 33.2598C194.633 32.765 195.908 32.5176 197.293 32.5176ZM196.662 33.7051C195.178 33.7051 193.99 34.3112 193.1 35.5234C192.209 36.7357 191.764 38.3438 191.764 40.3477C191.764 41.8568 191.924 43.3288 192.246 44.7637C192.568 46.1738 193.025 47.4355 193.619 48.5488C194.064 49.4147 194.658 50.0827 195.4 50.5527C196.143 51.0228 196.947 51.2578 197.812 51.2578C199.371 51.2578 200.583 50.5775 201.449 49.2168C202.34 47.8314 202.785 45.9388 202.785 43.5391C202.785 41.7331 202.525 40.0508 202.006 38.4922C201.486 36.9336 200.781 35.7585 199.891 34.9668C199.421 34.5215 198.926 34.1999 198.406 34.002C197.887 33.804 197.305 33.7051 196.662 33.7051ZM218.705 34.2617H214.4V46.4336C214.4 47.7943 214.574 48.7715 214.92 49.3652C215.266 49.9342 215.823 50.2188 216.59 50.2188C217.085 50.2188 217.518 50.1198 217.889 49.9219C218.26 49.6992 218.693 49.3034 219.188 48.7344L219.707 49.2539C218.371 51.3568 216.664 52.4082 214.586 52.4082C212.087 52.4082 210.838 50.6146 210.838 47.0273V34.2617H208.611C208.512 34.237 208.463 34.1504 208.463 34.002C208.463 33.7546 208.698 33.4824 209.168 33.1855C210.281 32.5423 211.654 31.0332 213.287 28.6582C213.411 28.4603 213.547 28.2747 213.695 28.1016C213.868 27.9036 214.017 27.6934 214.141 27.4707C214.24 27.4707 214.301 27.5078 214.326 27.582C214.376 27.6562 214.4 27.8047 214.4 28.0273V32.9258H218.705V34.2617ZM227.277 32.6289V47.6953C227.277 48.4622 227.302 49.0807 227.352 49.5508C227.426 49.9961 227.574 50.3548 227.797 50.627C228.02 50.8743 228.329 51.0475 228.725 51.1465C229.145 51.2454 229.714 51.332 230.432 51.4062V52H220.375V51.4062C221.117 51.3568 221.699 51.2826 222.119 51.1836C222.564 51.0599 222.898 50.8743 223.121 50.627C223.368 50.3548 223.529 49.9961 223.604 49.5508C223.678 49.0807 223.715 48.4622 223.715 47.6953V37.8613C223.715 36.9212 223.604 36.2656 223.381 35.8945C223.183 35.4987 222.837 35.3008 222.342 35.3008C222.144 35.3008 221.909 35.3132 221.637 35.3379C221.389 35.3626 221.13 35.3997 220.857 35.4492L220.561 35.4863V34.8555L227.092 32.5176L227.277 32.6289ZM225.162 23.0547C225.756 23.0547 226.263 23.2773 226.684 23.7227C227.104 24.1432 227.314 24.6504 227.314 25.2441C227.314 25.8626 227.104 26.3822 226.684 26.8027C226.288 27.1986 225.768 27.3965 225.125 27.3965C224.507 27.3965 223.999 27.1986 223.604 26.8027C223.208 26.3822 223.01 25.8626 223.01 25.2441C223.01 24.6504 223.22 24.1432 223.641 23.7227C224.061 23.2773 224.568 23.0547 225.162 23.0547ZM244.162 38.7148C243.692 36.8099 243.111 35.4616 242.418 34.6699C241.725 33.8783 240.773 33.4824 239.561 33.4824C238.571 33.4824 237.779 33.7546 237.186 34.2988C236.592 34.8184 236.295 35.5111 236.295 36.377C236.295 37.5892 236.901 38.554 238.113 39.2715L242.678 41.9805C243.964 42.7474 244.88 43.5143 245.424 44.2812C245.968 45.0234 246.24 45.9264 246.24 46.9902C246.24 47.7324 246.079 48.4375 245.758 49.1055C245.436 49.7734 245.003 50.3548 244.459 50.8496C243.939 51.3197 243.321 51.7031 242.604 52C241.886 52.2721 241.119 52.4082 240.303 52.4082C239.857 52.4082 239.375 52.3711 238.855 52.2969C238.336 52.2474 237.767 52.1484 237.148 52C236.654 51.8763 236.27 51.7897 235.998 51.7402C235.726 51.6908 235.466 51.666 235.219 51.666C234.971 51.666 234.786 51.7031 234.662 51.7773C234.538 51.8516 234.402 51.9876 234.254 52.1855H233.697V45.5801H234.365C234.613 46.6686 234.897 47.584 235.219 48.3262C235.54 49.0684 235.911 49.6745 236.332 50.1445C236.753 50.6146 237.247 50.9609 237.816 51.1836C238.385 51.3815 239.029 51.4805 239.746 51.4805C240.859 51.4805 241.725 51.2083 242.344 50.6641C242.987 50.1198 243.309 49.3776 243.309 48.4375C243.309 47.1758 242.566 46.1243 241.082 45.2832L238.633 43.873C237.717 43.3535 236.938 42.8587 236.295 42.3887C235.676 41.9186 235.169 41.4486 234.773 40.9785C234.378 40.4837 234.093 39.9766 233.92 39.457C233.747 38.9375 233.66 38.3809 233.66 37.7871C233.66 37.0202 233.796 36.3151 234.068 35.6719C234.365 35.0286 234.761 34.472 235.256 34.002C235.775 33.5319 236.394 33.1732 237.111 32.9258C237.829 32.6784 238.62 32.5547 239.486 32.5547C240.476 32.5547 241.428 32.7279 242.344 33.0742C242.863 33.2969 243.259 33.4082 243.531 33.4082C243.63 33.4082 243.704 33.3835 243.754 33.334C243.803 33.2845 243.927 33.1732 244.125 33L244.162 32.9258H244.682L244.83 38.7148H244.162ZM254.627 47.6953C254.627 48.4128 254.664 49.0065 254.738 49.4766C254.812 49.9219 254.949 50.2806 255.146 50.5527C255.344 50.8001 255.629 50.9857 256 51.1094C256.396 51.2331 256.903 51.332 257.521 51.4062V52H248.355V51.4062C248.974 51.3073 249.456 51.196 249.803 51.0723C250.174 50.9486 250.446 50.763 250.619 50.5156C250.817 50.2435 250.941 49.8971 250.99 49.4766C251.04 49.0312 251.064 48.4375 251.064 47.6953V27.7305C251.064 27.2852 251.04 26.9264 250.99 26.6543C250.941 26.3574 250.829 26.1348 250.656 25.9863C250.508 25.8132 250.285 25.7018 249.988 25.6523C249.716 25.6029 249.357 25.5781 248.912 25.5781C248.665 25.5781 248.492 25.5905 248.393 25.6152V24.9102L249.543 24.6133C250.137 24.4154 250.656 24.2546 251.102 24.1309C251.547 23.9824 251.955 23.8587 252.326 23.7598C252.697 23.6361 253.044 23.5247 253.365 23.4258C253.687 23.3021 254.033 23.1784 254.404 23.0547L254.627 23.2031V36.1172C255.617 34.806 256.581 33.8783 257.521 33.334C258.486 32.7897 259.587 32.5176 260.824 32.5176C262.605 32.5176 263.917 33.0866 264.758 34.2246C265.599 35.3626 266.02 37.0449 266.02 39.2715V47.6953C266.02 48.4128 266.044 48.9941 266.094 49.4395C266.143 49.86 266.255 50.2064 266.428 50.4785C266.626 50.7259 266.898 50.9238 267.244 51.0723C267.59 51.196 268.048 51.3073 268.617 51.4062V52H259.637V51.4062C260.255 51.332 260.75 51.2331 261.121 51.1094C261.492 50.9857 261.777 50.8001 261.975 50.5527C262.197 50.2806 262.333 49.9219 262.383 49.4766C262.457 49.0065 262.494 48.4128 262.494 47.6953V39.3457C262.494 36.3522 261.455 34.8555 259.377 34.8555C258.511 34.8555 257.719 35.0534 257.002 35.4492C256.309 35.8203 255.518 36.5007 254.627 37.4902V47.6953Z" fill="#CA875E"/>
</svg>
